<svg xmlns="http://www.w3.org/2000/svg" width="1907" height="1076" fill="none" viewBox="0 0 1907 1076">
  <g filter="url(#a)">
    <path fill="#E6E6E6" d="M1003 305.839H28.416V805H1003V305.839Z"/>
    <path fill="#fff" d="M975.133 348.643H56.284v416.466h918.849V348.643Z"/>
    <path fill="#6C63FF" d="M1002.58 277H28v44.689h974.58V277Z"/>
    <path fill="#fff" d="M58.768 305.954c4.238 0 7.674-3.709 7.674-8.283 0-4.575-3.436-8.283-7.674-8.283s-7.674 3.708-7.674 8.283c0 4.574 3.436 8.283 7.674 8.283Zm29.127 0c4.239 0 7.674-3.709 7.674-8.283 0-4.575-3.435-8.283-7.674-8.283-4.238 0-7.673 3.708-7.673 8.283 0 4.574 3.435 8.283 7.673 8.283Zm29.13 0c4.238 0 7.673-3.709 7.673-8.283 0-4.575-3.435-8.283-7.673-8.283-4.239 0-7.674 3.708-7.674 8.283 0 4.574 3.435 8.283 7.674 8.283Z"/>
    <path fill="#E6E6E6" d="M110.021 616.585c-1.066.005-2.086.464-2.838 1.279-.752.815-1.174 1.918-1.174 3.068 0 1.15.422 2.253 1.174 3.068.752.814 1.772 1.274 2.838 1.278h220.96c1.066-.004 2.086-.464 2.838-1.278a4.53 4.53 0 0 0 1.175-3.068 4.53 4.53 0 0 0-1.175-3.068c-.752-.815-1.772-1.274-2.838-1.279h-220.96Zm0 26.081c-1.066.005-2.086.464-2.838 1.279-.752.815-1.174 1.918-1.174 3.068 0 1.15.422 2.253 1.174 3.068.752.814 1.772 1.274 2.838 1.278h112.805c1.065-.004 2.086-.464 2.838-1.278.752-.815 1.174-1.918 1.174-3.068 0-1.15-.422-2.253-1.174-3.068s-1.773-1.274-2.838-1.279H110.021Z"/>
    <path fill="#6C63FF" d="M331.259 691.906h-83.935c-1.087-.002-2.129-.468-2.898-1.298-.769-.83-1.201-1.955-1.202-3.128v-14.516c.001-1.173.433-2.298 1.202-3.128.769-.829 1.811-1.296 2.898-1.297h83.935c1.087.001 2.129.468 2.898 1.297.769.83 1.201 1.955 1.202 3.128v14.516c-.001 1.173-.433 2.298-1.202 3.128-.769.83-1.811 1.296-2.898 1.298Zm0-151.155h-83.935c-1.087-.001-2.129-.468-2.898-1.298-.769-.829-1.201-1.954-1.202-3.128V521.81c.001-1.174.433-2.299 1.202-3.128.769-.83 1.811-1.297 2.898-1.298h83.935c1.087.001 2.129.468 2.898 1.298.769.829 1.201 1.954 1.202 3.128v14.515c-.001 1.174-.433 2.299-1.202 3.128-.769.83-1.811 1.297-2.898 1.298Z"/>
    <path fill="#E6E6E6" d="M479.203 421.479c-1.392.002-2.727.601-3.71 1.664-.984 1.064-1.536 2.505-1.536 4.007 0 1.503.552 2.944 1.536 4.008.983 1.063 2.318 1.661 3.71 1.664h439.456c1.392-.003 2.727-.601 3.71-1.664.984-1.064 1.536-2.505 1.536-4.008 0-1.502-.552-2.943-1.536-4.007-.983-1.063-2.318-1.662-3.71-1.664H479.203Zm0 34.031c-1.392.003-2.727.601-3.71 1.665-.984 1.063-1.536 2.504-1.536 4.007 0 1.502.552 2.944 1.536 4.007.983 1.063 2.318 1.662 3.71 1.664h298.331c1.392-.002 2.726-.601 3.71-1.664.983-1.063 1.536-2.505 1.536-4.007 0-1.503-.553-2.944-1.536-4.007-.984-1.064-2.318-1.662-3.71-1.665H479.203Zm0 33.262c-1.392.002-2.727.601-3.71 1.664-.984 1.064-1.536 2.505-1.536 4.007 0 1.503.552 2.944 1.536 4.007.983 1.064 2.318 1.662 3.71 1.665h439.456c1.392-.003 2.727-.601 3.71-1.665.984-1.063 1.536-2.504 1.536-4.007 0-1.502-.552-2.943-1.536-4.007-.983-1.063-2.318-1.662-3.71-1.664H479.203Zm0 34.031c-1.392.003-2.727.601-3.71 1.665-.984 1.063-1.536 2.504-1.536 4.007 0 1.502.552 2.944 1.536 4.007.983 1.063 2.318 1.662 3.71 1.664h298.331c1.392-.002 2.726-.601 3.71-1.664.983-1.063 1.536-2.505 1.536-4.007 0-1.503-.553-2.944-1.536-4.007-.984-1.064-2.318-1.662-3.71-1.665H479.203Z"/>
    <path fill="#6C63FF" d="M919.947 596.407h-83.935c-1.087-.001-2.129-.468-2.898-1.298-.769-.829-1.201-1.954-1.202-3.128v-14.515c.001-1.173.433-2.298 1.202-3.128.769-.83 1.811-1.297 2.898-1.298h83.935c1.087.001 2.13.468 2.898 1.298.769.83 1.201 1.955 1.203 3.128v14.515c-.002 1.174-.434 2.299-1.203 3.128-.768.83-1.811 1.297-2.898 1.298Z"/>
    <path fill="#E4E4E4" d="M205.187 427.622c-1.491.006-2.698 2.096-2.695 4.669.003 2.567 1.208 4.646 2.695 4.651h127.306c1.492-.005 2.698-2.096 2.695-4.669-.003-2.566-1.208-4.645-2.695-4.651H205.187Zm0 27.002c-1.491.005-2.698 2.095-2.695 4.668.003 2.567 1.208 4.646 2.695 4.651h127.306c1.492-.005 2.698-2.095 2.695-4.669-.003-2.566-1.208-4.645-2.695-4.65H205.187Zm0 26.674c-1.491.005-2.698 2.096-2.695 4.669.003 2.566 1.208 4.646 2.695 4.651h54.78c1.491-.005 2.698-2.096 2.695-4.669-.003-2.566-1.208-4.646-2.695-4.651h-54.78Zm-64.639 14.756c19.079 0 34.546-16.694 34.546-37.288 0-20.593-15.467-37.287-34.546-37.287s-34.546 16.694-34.546 37.287c0 20.594 15.467 37.288 34.546 37.288Z"/>
    <g filter="url(#b)">
      <path fill="#fff" d="M716.903 748.918H411.636c-1.71-.001-3.348-.646-4.557-1.793-1.209-1.146-1.889-2.701-1.891-4.322V615.727c.002-1.622.682-3.176 1.891-4.323 1.209-1.147 2.847-1.791 4.557-1.793H716.9c1.709.002 3.348.646 4.557 1.793 1.208 1.147 1.888 2.701 1.89 4.323v127.072c-.001 1.622-.68 3.177-1.888 4.324-1.208 1.147-2.846 1.793-4.556 1.795Z"/>
      <path stroke="#000" stroke-opacity=".35" d="M716.902 748.418H411.636c-1.585-.001-3.1-.6-4.213-1.656-1.112-1.055-1.733-2.479-1.735-3.96V615.727c.002-1.48.623-2.905 1.735-3.96 1.113-1.056 2.628-1.655 4.213-1.656h305.263c1.585.001 3.1.6 4.213 1.656 1.113 1.055 1.733 2.48 1.735 3.96v127.072c-.001 1.48-.62 2.905-1.732 3.961-1.113 1.057-2.627 1.656-4.213 1.658Z"/>
    </g>
    <path fill="#fff" d="M465.15 672.942v-16h9.656v1.718h-7.719v5.407h7.219v1.718h-7.219v5.438h7.844v1.719h-9.781Zm17.429.25c-1 0-1.882-.253-2.648-.758-.766-.511-1.365-1.229-1.797-2.157-.432-.932-.648-2.033-.648-3.304 0-1.261.216-2.354.648-3.281.432-.928 1.034-1.644 1.805-2.149.771-.505 1.661-.758 2.672-.758.781 0 1.398.13 1.851.391.459.255.808.547 1.047.875.245.323.435.588.57.797h.157v-5.906h1.843v16h-1.781v-1.844h-.219c-.135.219-.328.495-.578.828-.25.328-.606.622-1.07.883-.464.255-1.081.383-1.852.383Zm.25-1.657c.74 0 1.365-.192 1.875-.578.511-.39.899-.93 1.165-1.617.265-.693.398-1.492.398-2.398 0-.896-.13-1.68-.391-2.352-.26-.677-.645-1.203-1.156-1.578-.51-.38-1.141-.57-1.891-.57-.781 0-1.432.2-1.953.601-.515.396-.903.935-1.164 1.617-.255.677-.383 1.438-.383 2.282 0 .854.131 1.63.391 2.328.266.692.656 1.244 1.172 1.656.521.406 1.167.609 1.937.609Zm8.883 1.407v-12h1.844v12h-1.844Zm.938-14c-.36 0-.669-.123-.93-.368a1.179 1.179 0 0 1-.383-.882c0-.344.128-.638.383-.883a1.31 1.31 0 0 1 .93-.367c.359 0 .666.122.922.367.26.245.39.539.39.883 0 .343-.13.638-.39.882a1.286 1.286 0 0 1-.922.368Zm9.502 2v1.562h-6.219v-1.562h6.219Zm-4.407-2.875h1.844v11.437c0 .521.076.911.227 1.172.156.255.354.427.594.516.244.083.502.125.773.125.203 0 .37-.011.5-.032l.312-.062.375 1.656a3.734 3.734 0 0 1-.523.141 3.863 3.863 0 0 1-.852.078c-.52 0-1.031-.112-1.531-.336a3.035 3.035 0 0 1-1.234-1.024c-.323-.458-.485-1.036-.485-1.734v-11.937Zm13.368 19.375v-16.5h1.781v1.906h.219c.135-.209.323-.474.562-.797.245-.328.594-.62 1.047-.875.458-.261 1.078-.391 1.859-.391 1.011 0 1.901.253 2.672.758.771.505 1.373 1.221 1.805 2.149.432.927.648 2.02.648 3.281 0 1.271-.216 2.372-.648 3.304-.432.928-1.031 1.646-1.797 2.157-.766.505-1.648.758-2.648.758-.771 0-1.388-.128-1.852-.383-.463-.261-.82-.555-1.07-.883-.25-.333-.443-.609-.578-.828h-.157v6.344h-1.843Zm1.812-10.5c0 .906.133 1.705.399 2.398.265.687.653 1.227 1.164 1.617.51.386 1.135.578 1.875.578.771 0 1.414-.203 1.929-.609.521-.412.912-.964 1.172-1.656.266-.698.399-1.474.399-2.328 0-.844-.131-1.605-.391-2.282-.255-.682-.643-1.221-1.164-1.617-.516-.401-1.164-.601-1.945-.601-.75 0-1.381.19-1.891.57-.51.375-.896.901-1.156 1.578-.261.672-.391 1.456-.391 2.352Zm11.594 6v-12h1.781v1.812h.125c.219-.594.615-1.075 1.188-1.445a3.492 3.492 0 0 1 1.937-.555c.136 0 .305.003.508.008s.357.013.461.023v1.875a5.796 5.796 0 0 0-.43-.07 4.275 4.275 0 0 0-.695-.055c-.583 0-1.104.123-1.563.367-.453.24-.812.573-1.078 1a2.7 2.7 0 0 0-.39 1.446v7.594h-1.844Zm12.695.25c-1.083 0-2.034-.258-2.851-.774-.813-.516-1.448-1.237-1.907-2.164-.453-.927-.679-2.01-.679-3.25 0-1.25.226-2.341.679-3.273.459-.933 1.094-1.657 1.907-2.172.817-.516 1.768-.774 2.851-.774 1.084 0 2.031.258 2.844.774.818.515 1.453 1.239 1.906 2.172.459.932.688 2.023.688 3.273 0 1.24-.229 2.323-.688 3.25-.453.927-1.088 1.648-1.906 2.164-.813.516-1.76.774-2.844.774Zm0-1.657c.823 0 1.5-.211 2.031-.633.532-.421.925-.976 1.18-1.664a6.372 6.372 0 0 0 .383-2.234c0-.802-.128-1.549-.383-2.242-.255-.693-.648-1.253-1.18-1.68-.531-.427-1.208-.64-2.031-.64-.823 0-1.5.213-2.031.64-.531.427-.924.987-1.18 1.68a6.441 6.441 0 0 0-.383 2.242c0 .802.128 1.547.383 2.234.256.688.649 1.243 1.18 1.664.531.422 1.208.633 2.031.633Zm13.596-10.593v1.562h-6.469v-1.562h6.469Zm-4.531 12v-13.657c0-.687.161-1.26.484-1.718a2.996 2.996 0 0 1 1.258-1.032 3.976 3.976 0 0 1 1.633-.343c.453 0 .823.036 1.109.109.287.073.5.141.641.203l-.532 1.594a8.207 8.207 0 0 0-.39-.117 2.364 2.364 0 0 0-.641-.071c-.609 0-1.049.154-1.32.461-.266.308-.399.758-.399 1.352v13.219h-1.843Zm7.115 0v-12h1.844v12h-1.844Zm.937-14a1.31 1.31 0 0 1-.929-.368 1.179 1.179 0 0 1-.383-.882c0-.344.128-.638.383-.883.26-.245.57-.367.929-.367.36 0 .667.122.922.367.261.245.391.539.391.883 0 .343-.13.638-.391.882a1.283 1.283 0 0 1-.922.368Zm6.127-2v16h-1.843v-16h1.843Zm8.409 16.25c-1.157 0-2.154-.256-2.993-.766-.833-.516-1.476-1.234-1.929-2.156-.448-.927-.672-2.006-.672-3.235s.224-2.312.672-3.25c.453-.942 1.083-1.677 1.89-2.203.813-.531 1.761-.797 2.844-.797.625 0 1.242.104 1.852.313a4.595 4.595 0 0 1 1.664 1.015c.5.464.898 1.079 1.195 1.844.297.766.445 1.708.445 2.828v.782h-9.25v-1.594h7.375c0-.677-.135-1.281-.406-1.813a3.07 3.07 0 0 0-1.141-1.258c-.489-.307-1.067-.46-1.734-.46-.734 0-1.37.182-1.906.546-.531.36-.94.829-1.227 1.407a4.136 4.136 0 0 0-.429 1.859v1.063c0 .906.156 1.674.468 2.304.318.625.758 1.102 1.321 1.43.562.323 1.216.484 1.961.484.484 0 .921-.067 1.312-.203.396-.14.737-.349 1.024-.625a2.85 2.85 0 0 0 .664-1.047l1.781.5a3.962 3.962 0 0 1-.945 1.594c-.443.453-.99.807-1.641 1.063-.651.25-1.383.375-2.195.375Zm15.804-7.469v7.219h-1.843v-16h1.843v5.875h.157a3.395 3.395 0 0 1 1.265-1.477c.568-.37 1.323-.555 2.266-.555.817 0 1.534.164 2.148.492.615.323 1.091.821 1.43 1.493.344.666.516 1.515.516 2.547v7.625h-1.844v-7.5c0-.954-.248-1.691-.742-2.211-.49-.526-1.17-.789-2.039-.789-.605 0-1.146.127-1.625.382a2.801 2.801 0 0 0-1.125 1.118c-.271.489-.407 1.083-.407 1.781Zm16.186 7.469c-1.156 0-2.154-.256-2.992-.766-.834-.516-1.477-1.234-1.93-2.156-.448-.927-.672-2.006-.672-3.235s.224-2.312.672-3.25c.453-.942 1.083-1.677 1.891-2.203.812-.531 1.76-.797 2.843-.797.625 0 1.242.104 1.852.313a4.595 4.595 0 0 1 1.664 1.015c.5.464.898 1.079 1.195 1.844.297.766.446 1.708.446 2.828v.782h-9.25v-1.594h7.375c0-.677-.136-1.281-.407-1.813a3.067 3.067 0 0 0-1.14-1.258c-.49-.307-1.068-.46-1.735-.46-.734 0-1.369.182-1.906.546-.531.36-.94.829-1.227 1.407a4.136 4.136 0 0 0-.429 1.859v1.063c0 .906.156 1.674.469 2.304.317.625.757 1.102 1.32 1.43.562.323 1.216.484 1.961.484a3.97 3.97 0 0 0 1.312-.203c.396-.14.737-.349 1.024-.625.286-.281.508-.63.664-1.047l1.781.5a3.95 3.95 0 0 1-.945 1.594c-.443.453-.99.807-1.641 1.063-.651.25-1.383.375-2.195.375Zm7.773-.25v-12h1.781v1.812h.125c.219-.594.615-1.075 1.188-1.445a3.494 3.494 0 0 1 1.937-.555c.136 0 .305.003.508.008s.357.013.461.023v1.875a5.638 5.638 0 0 0-.429-.07 4.287 4.287 0 0 0-.696-.055c-.583 0-1.104.123-1.562.367a2.77 2.77 0 0 0-1.078 1 2.692 2.692 0 0 0-.391 1.446v7.594h-1.844Zm12.852.25c-1.156 0-2.154-.256-2.992-.766-.834-.516-1.477-1.234-1.93-2.156-.448-.927-.672-2.006-.672-3.235s.224-2.312.672-3.25c.453-.942 1.083-1.677 1.891-2.203.812-.531 1.76-.797 2.843-.797.625 0 1.242.104 1.852.313a4.595 4.595 0 0 1 1.664 1.015c.5.464.898 1.079 1.195 1.844.297.766.446 1.708.446 2.828v.782h-9.25v-1.594h7.375c0-.677-.136-1.281-.407-1.813a3.067 3.067 0 0 0-1.14-1.258c-.49-.307-1.068-.46-1.735-.46-.734 0-1.369.182-1.906.546-.531.36-.94.829-1.227 1.407a4.136 4.136 0 0 0-.429 1.859v1.063c0 .906.156 1.674.469 2.304.317.625.757 1.102 1.32 1.43.562.323 1.216.484 1.961.484a3.97 3.97 0 0 0 1.312-.203c.396-.14.737-.349 1.024-.625.286-.281.508-.63.664-1.047l1.781.5a3.95 3.95 0 0 1-.945 1.594c-.443.453-.99.807-1.641 1.063-.651.25-1.383.375-2.195.375Z"/>
    <g filter="url(#c)">
      <path fill="#fff" d="m380.175 679.531 24.761-26.726 24.762 26.726-24.762 26.727z"/>
      <path stroke="#000" stroke-opacity=".35" d="M.68 0h35.434v35.434H.68z" transform="matrix(.67962 -.73356 .67962 .73356 380.394 680.03)"/>
    </g>
    <g filter="url(#d)">
      <path fill="#fff" d="M405.188 652.807H429.2v52.915h-24.012z"/>
    </g>
    <path fill="#E6E6E6" d="M452.222 674.405c-1.065.004-2.086.464-2.838 1.279-.752.814-1.174 1.917-1.174 3.067 0 1.15.422 2.254 1.174 3.068.752.815 1.773 1.275 2.838 1.279h220.96c1.066-.004 2.086-.464 2.838-1.279.752-.814 1.175-1.918 1.175-3.068 0-1.15-.423-2.253-1.175-3.067-.752-.815-1.772-1.275-2.838-1.279h-220.96Zm0 22.678c-1.065.004-2.086.464-2.838 1.279-.752.814-1.174 1.917-1.174 3.067 0 1.15.422 2.254 1.174 3.068.752.815 1.773 1.275 2.838 1.279h112.805c1.065-.004 2.086-.464 2.838-1.279.752-.814 1.174-1.918 1.174-3.068 0-1.15-.422-2.253-1.174-3.067-.752-.815-1.773-1.275-2.838-1.279H452.222Z"/>
    <path fill="#464343" d="M457.636 634.969h-1.233a2.573 2.573 0 0 0-1.039-1.611 2.806 2.806 0 0 0-.85-.417 3.395 3.395 0 0 0-.975-.139 3.1 3.1 0 0 0-1.675.467c-.497.311-.893.77-1.188 1.377-.292.606-.438 1.351-.438 2.232 0 .882.146 1.626.438 2.232.295.607.691 1.066 1.188 1.378a3.11 3.11 0 0 0 1.675.467c.338 0 .663-.046.975-.139.311-.093.595-.231.85-.413a2.617 2.617 0 0 0 1.039-1.616h1.233a4.112 4.112 0 0 1-.507 1.397 3.82 3.82 0 0 1-.915 1.049 4.033 4.033 0 0 1-1.228.652 4.583 4.583 0 0 1-1.447.223c-.868 0-1.64-.212-2.316-.636-.677-.424-1.209-1.028-1.596-1.81-.388-.782-.582-1.71-.582-2.784 0-1.074.194-2.002.582-2.784.387-.782.919-1.385 1.596-1.81.676-.424 1.448-.636 2.316-.636.514 0 .996.075 1.447.224.454.149.863.368 1.228.656.365.285.669.633.915 1.044.245.408.414.873.507 1.397Zm3.006-3.182v10.182h-1.173v-10.182h1.173Zm2.149 10.182v-7.636h1.174v7.636h-1.174Zm.597-8.909a.834.834 0 0 1-.592-.234.75.75 0 0 1-.243-.561c0-.219.081-.406.243-.562a.834.834 0 0 1 .592-.234c.229 0 .424.078.587.234a.746.746 0 0 1 .248.562.744.744 0 0 1-.248.561.818.818 0 0 1-.587.234Zm5.828 9.068c-.716 0-1.332-.169-1.85-.507a3.31 3.31 0 0 1-1.193-1.397c-.278-.593-.417-1.271-.417-2.033 0-.776.142-1.46.427-2.054a3.394 3.394 0 0 1 1.203-1.397c.517-.338 1.121-.507 1.81-.507.537 0 1.021.1 1.452.299a2.77 2.77 0 0 1 1.059.835c.275.358.445.775.512 1.253h-1.174c-.089-.348-.288-.657-.596-.925-.305-.272-.716-.408-1.233-.408-.457 0-.858.12-1.203.358-.342.236-.608.569-.801 1-.189.427-.283.929-.283 1.506 0 .59.093 1.104.278 1.541.189.438.454.777.796 1.019.345.242.749.363 1.213.363.305 0 .582-.053.83-.159.249-.106.459-.258.632-.457.172-.199.295-.438.367-.716h1.174a2.733 2.733 0 0 1-.492 1.218 2.752 2.752 0 0 1-1.03.855c-.424.209-.918.313-1.481.313Zm5.812-2.943-.02-1.452h.238l3.341-3.4h1.452l-3.56 3.599h-.099l-1.352 1.253Zm-1.094 2.784v-10.182h1.173v10.182h-1.173Zm4.852 0-2.983-3.778.836-.816 3.639 4.594h-1.492Zm7.874-4.594v4.594h-1.173v-10.182h1.173v3.739h.099c.179-.394.448-.708.806-.94.361-.235.842-.353 1.442-.353.52 0 .976.105 1.367.314.391.205.694.522.91.949.218.424.328.965.328 1.621v4.852h-1.174v-4.773c0-.606-.157-1.075-.472-1.407-.311-.334-.744-.502-1.297-.502-.385 0-.73.082-1.035.244-.301.162-.54.399-.715.711-.173.311-.259.689-.259 1.133Zm10.3 4.753c-.736 0-1.371-.162-1.904-.487a3.266 3.266 0 0 1-1.228-1.372c-.285-.59-.428-1.276-.428-2.058 0-.783.143-1.472.428-2.069.288-.599.689-1.067 1.203-1.402.517-.338 1.12-.507 1.81-.507.397 0 .79.067 1.178.199.388.133.741.348 1.059.646.318.295.572.687.76 1.174.189.487.284 1.087.284 1.8v.497h-5.887v-1.015h4.694c0-.43-.087-.815-.259-1.153a1.943 1.943 0 0 0-.726-.8c-.311-.196-.679-.294-1.103-.294-.468 0-.872.116-1.213.348a2.282 2.282 0 0 0-.781.895 2.635 2.635 0 0 0-.273 1.183v.677c0 .576.099 1.065.298 1.466.202.398.482.701.84.91.358.205.774.308 1.248.308.308 0 .587-.043.835-.129.252-.09.469-.222.651-.398.183-.179.324-.401.423-.666l1.134.318a2.51 2.51 0 0 1-.602 1.014c-.282.289-.63.514-1.044.677-.414.159-.88.238-1.397.238Zm4.947-.159v-7.636h1.133v1.153h.08c.139-.378.391-.684.755-.92a2.229 2.229 0 0 1 1.233-.353c.087 0 .194.002.323.005.13.004.228.009.294.015v1.194a3.474 3.474 0 0 0-.274-.045 2.703 2.703 0 0 0-.442-.035c-.371 0-.703.078-.994.234a1.712 1.712 0 0 0-.935 1.556v4.832h-1.173Zm8.178.159c-.736 0-1.371-.162-1.904-.487a3.266 3.266 0 0 1-1.228-1.372c-.285-.59-.428-1.276-.428-2.058 0-.783.143-1.472.428-2.069.288-.599.689-1.067 1.203-1.402.517-.338 1.12-.507 1.81-.507.397 0 .79.067 1.178.199.388.133.741.348 1.059.646.318.295.572.687.76 1.174.189.487.284 1.087.284 1.8v.497h-5.887v-1.015h4.694c0-.43-.087-.815-.259-1.153a1.943 1.943 0 0 0-.726-.8c-.311-.196-.679-.294-1.103-.294-.468 0-.872.116-1.213.348a2.282 2.282 0 0 0-.781.895 2.635 2.635 0 0 0-.273 1.183v.677c0 .576.099 1.065.298 1.466.202.398.482.701.84.91.358.205.774.308 1.248.308.308 0 .587-.043.835-.129.252-.09.469-.222.651-.398.183-.179.324-.401.423-.666l1.134.318a2.51 2.51 0 0 1-.602 1.014c-.282.289-.63.514-1.044.677-.414.159-.88.238-1.397.238Zm12.205-7.795v.994h-3.957v-.994h3.957Zm-2.804-1.83h1.173v7.279c0 .331.049.58.145.745a.74.74 0 0 0 .377.328c.156.054.32.08.493.08.129 0 .235-.007.318-.02l.199-.04.238 1.054c-.079.03-.19.06-.333.09-.142.033-.323.05-.542.05a2.37 2.37 0 0 1-.974-.214 1.94 1.94 0 0 1-.786-.652c-.205-.291-.308-.659-.308-1.103v-7.597Zm7.589 9.625c-.689 0-1.294-.164-1.814-.492a3.338 3.338 0 0 1-1.213-1.377c-.289-.59-.433-1.279-.433-2.068 0-.796.144-1.49.433-2.083a3.327 3.327 0 0 1 1.213-1.382c.52-.329 1.125-.493 1.814-.493.69 0 1.293.164 1.81.493.52.328.925.788 1.213 1.382.292.593.438 1.287.438 2.083 0 .789-.146 1.478-.438 2.068a3.296 3.296 0 0 1-1.213 1.377c-.517.328-1.12.492-1.81.492Zm0-1.054c.524 0 .955-.134 1.293-.402.338-.269.588-.622.751-1.059.162-.438.243-.912.243-1.422 0-.511-.081-.986-.243-1.427a2.411 2.411 0 0 0-.751-1.069c-.338-.272-.769-.408-1.293-.408-.523 0-.954.136-1.292.408a2.403 2.403 0 0 0-.751 1.069 4.104 4.104 0 0 0-.244 1.427c0 .51.082.984.244 1.422.162.437.413.79.751 1.059.338.268.769.402 1.292.402Zm14.598-5.031-1.054.298a1.97 1.97 0 0 0-.293-.512 1.417 1.417 0 0 0-.517-.417c-.219-.11-.499-.164-.84-.164-.468 0-.857.107-1.169.323-.308.212-.462.482-.462.81 0 .292.106.522.318.691.212.169.544.31.994.423l1.134.278c.683.166 1.191.419 1.526.761.335.338.502.774.502 1.307 0 .438-.126.829-.377 1.174-.249.344-.597.616-1.045.815-.447.199-.967.298-1.561.298-.778 0-1.423-.169-1.934-.507-.51-.338-.833-.832-.969-1.481l1.114-.279c.106.411.306.719.601.925.298.205.688.308 1.169.308.546 0 .981-.116 1.302-.348.325-.235.487-.517.487-.845a.89.89 0 0 0-.278-.666c-.186-.183-.471-.318-.855-.408l-1.273-.298c-.699-.166-1.213-.423-1.541-.771-.325-.351-.487-.79-.487-1.317 0-.431.121-.812.363-1.144a2.47 2.47 0 0 1 .999-.78 3.508 3.508 0 0 1 1.442-.284c.755 0 1.349.166 1.779.497.435.332.743.769.925 1.313Zm5.107 6.085c-.736 0-1.37-.162-1.904-.487a3.273 3.273 0 0 1-1.228-1.372c-.285-.59-.427-1.276-.427-2.058 0-.783.142-1.472.427-2.069.288-.599.689-1.067 1.203-1.402.517-.338 1.12-.507 1.81-.507.398 0 .79.067 1.178.199.388.133.741.348 1.059.646.318.295.572.687.761 1.174.189.487.283 1.087.283 1.8v.497h-5.886v-1.015h4.693c0-.43-.086-.815-.259-1.153a1.948 1.948 0 0 0-.725-.8c-.312-.196-.68-.294-1.104-.294-.467 0-.872.116-1.213.348a2.298 2.298 0 0 0-.781.895 2.635 2.635 0 0 0-.273 1.183v.677c0 .576.099 1.065.298 1.466.202.398.482.701.84.91.358.205.774.308 1.248.308.308 0 .587-.043.835-.129.252-.09.469-.222.652-.398.182-.179.323-.401.422-.666l1.134.318c-.119.385-.32.723-.602 1.014a2.92 2.92 0 0 1-1.044.677c-.414.159-.88.238-1.397.238Zm6.12-4.753v4.594h-1.173v-7.636h1.133v1.193h.1c.179-.388.451-.699.815-.935.365-.238.835-.358 1.412-.358.517 0 .97.106 1.357.319.388.208.69.526.905.954.216.424.323.961.323 1.611v4.852h-1.173v-4.773c0-.6-.156-1.067-.467-1.402-.312-.338-.739-.507-1.283-.507-.374 0-.709.082-1.004.244a1.736 1.736 0 0 0-.691.711c-.169.311-.254.689-.254 1.133Zm9.9 4.753c-.636 0-1.198-.161-1.685-.482-.488-.325-.869-.782-1.144-1.372-.275-.593-.413-1.294-.413-2.103 0-.802.138-1.498.413-2.088.275-.59.658-1.046 1.149-1.367.49-.322 1.057-.483 1.7-.483.497 0 .89.083 1.178.249.292.162.514.348.666.557.156.205.277.374.363.507h.1v-3.759h1.173v10.182h-1.134v-1.173h-.139a7.523 7.523 0 0 1-.368.527 2.184 2.184 0 0 1-.681.562c-.295.162-.688.243-1.178.243Zm.159-1.054c.471 0 .868-.122 1.193-.368.325-.248.572-.591.741-1.029.169-.441.254-.949.254-1.526 0-.57-.083-1.069-.249-1.497-.166-.43-.411-.765-.736-1.004-.325-.242-.726-.363-1.203-.363-.497 0-.911.128-1.243.383a2.296 2.296 0 0 0-.741 1.029 4.102 4.102 0 0 0-.243 1.452c0 .543.083 1.037.248 1.481.169.441.418.793.746 1.054.331.259.742.388 1.233.388Zm11.837 1.074c-.484 0-.923-.091-1.317-.273a2.263 2.263 0 0 1-.94-.801c-.232-.351-.348-.775-.348-1.272 0-.438.086-.793.259-1.064.172-.276.402-.491.691-.647.288-.156.606-.272.954-.348.352-.079.705-.142 1.059-.189.464-.059.841-.104 1.129-.134.292-.033.504-.088.636-.164.136-.076.204-.209.204-.398v-.039c0-.491-.134-.872-.403-1.144-.265-.272-.667-.408-1.208-.408-.56 0-.999.123-1.317.368-.318.246-.542.507-.671.786l-1.114-.398c.199-.464.464-.825.795-1.084.335-.262.7-.444 1.094-.547a4.547 4.547 0 0 1 1.174-.159c.245 0 .526.03.845.09.321.056.631.174.929.353.302.179.552.449.751.81.199.361.298.845.298 1.452v5.031h-1.173v-1.034h-.06a2.059 2.059 0 0 1-.397.532c-.186.189-.433.35-.741.482-.308.133-.685.199-1.129.199Zm.179-1.054c.464 0 .855-.091 1.174-.273a1.867 1.867 0 0 0 .974-1.616v-1.074c-.05.06-.159.114-.328.164a5.287 5.287 0 0 1-.577.124 24.54 24.54 0 0 1-1.123.15c-.305.039-.59.104-.855.193a1.494 1.494 0 0 0-.637.393c-.159.173-.238.408-.238.706 0 .408.15.716.452.925.305.205.691.308 1.158.308Zm12.284 1.034c-.636 0-1.198-.161-1.685-.482-.488-.325-.869-.782-1.144-1.372-.275-.593-.413-1.294-.413-2.103 0-.802.138-1.498.413-2.088.275-.59.658-1.046 1.149-1.367.49-.322 1.057-.483 1.7-.483.497 0 .89.083 1.178.249.292.162.514.348.666.557.156.205.277.374.363.507h.1v-3.759h1.173v10.182h-1.134v-1.173h-.139a7.523 7.523 0 0 1-.368.527 2.184 2.184 0 0 1-.681.562c-.295.162-.688.243-1.178.243Zm.159-1.054c.471 0 .868-.122 1.193-.368.325-.248.572-.591.741-1.029.169-.441.253-.949.253-1.526 0-.57-.082-1.069-.248-1.497-.166-.43-.411-.765-.736-1.004-.325-.242-.726-.363-1.203-.363-.497 0-.911.128-1.243.383a2.296 2.296 0 0 0-.741 1.029 4.102 4.102 0 0 0-.243 1.452c0 .543.083 1.037.248 1.481.169.441.418.793.746 1.054.331.259.742.388 1.233.388Zm5.653.895v-7.636h1.173v7.636h-1.173Zm.596-8.909a.832.832 0 0 1-.591-.234.747.747 0 0 1-.244-.561.75.75 0 0 1 .244-.562.832.832 0 0 1 .591-.234c.229 0 .425.078.587.234a.744.744 0 0 1 .249.562.741.741 0 0 1-.249.561.816.816 0 0 1-.587.234Zm2.726 8.909v-7.636h1.133v1.153h.08c.139-.378.391-.684.756-.92a2.224 2.224 0 0 1 1.233-.353c.086 0 .194.002.323.005.129.004.227.009.293.015v1.194a3.506 3.506 0 0 0-.273-.045 2.724 2.724 0 0 0-.443-.035c-.371 0-.702.078-.994.234a1.712 1.712 0 0 0-.935 1.556v4.832h-1.173Zm8.178.159c-.736 0-1.37-.162-1.904-.487a3.273 3.273 0 0 1-1.228-1.372c-.285-.59-.427-1.276-.427-2.058 0-.783.142-1.472.427-2.069a3.383 3.383 0 0 1 1.203-1.402c.517-.338 1.121-.507 1.81-.507.398 0 .79.067 1.178.199.388.133.741.348 1.059.646.318.295.572.687.761 1.174.189.487.283 1.087.283 1.8v.497h-5.886v-1.015h4.693c0-.43-.086-.815-.259-1.153a1.948 1.948 0 0 0-.725-.8c-.312-.196-.68-.294-1.104-.294-.467 0-.872.116-1.213.348a2.298 2.298 0 0 0-.781.895 2.635 2.635 0 0 0-.273 1.183v.677c0 .576.099 1.065.298 1.466.202.398.482.701.84.91.358.205.774.308 1.248.308.308 0 .587-.043.835-.129.252-.09.469-.222.652-.398.182-.179.323-.401.422-.666l1.134.318c-.119.385-.32.723-.602 1.014a2.92 2.92 0 0 1-1.044.677c-.414.159-.88.238-1.397.238Zm8.049 0c-.716 0-1.332-.169-1.849-.507a3.303 3.303 0 0 1-1.193-1.397c-.279-.593-.418-1.271-.418-2.033 0-.776.143-1.46.428-2.054a3.38 3.38 0 0 1 1.203-1.397c.517-.338 1.12-.507 1.809-.507.537 0 1.021.1 1.452.299a2.77 2.77 0 0 1 1.059.835 2.6 2.6 0 0 1 .512 1.253h-1.173a1.824 1.824 0 0 0-.597-.925c-.305-.272-.716-.408-1.233-.408-.457 0-.858.12-1.203.358-.341.236-.608.569-.8 1-.189.427-.284.929-.284 1.506 0 .59.093 1.104.279 1.541.189.438.454.777.795 1.019.345.242.749.363 1.213.363.305 0 .582-.053.83-.159.249-.106.46-.258.632-.457s.295-.438.368-.716h1.173a2.71 2.71 0 0 1-1.521 2.073c-.424.209-.918.313-1.482.313Zm8.039-7.795v.994h-3.957v-.994h3.957Zm-2.804-1.83h1.174v7.279c0 .331.048.58.144.745a.739.739 0 0 0 .378.328c.155.054.319.08.492.08.129 0 .235-.007.318-.02l.199-.04.238 1.054c-.079.03-.19.06-.333.09-.142.033-.323.05-.542.05a2.37 2.37 0 0 1-.974-.214 1.931 1.931 0 0 1-.785-.652c-.206-.291-.309-.659-.309-1.103v-7.597Zm-168.571 26.466v-7.636h1.133v1.193h.1c.159-.408.415-.724.77-.95.355-.228.781-.343 1.278-.343.504 0 .923.115 1.258.343.338.226.601.542.79.95h.08c.195-.394.489-.708.88-.94.391-.235.86-.353 1.407-.353.682 0 1.241.214 1.675.642.434.424.651 1.085.651 1.983v5.111h-1.173v-5.111c0-.563-.154-.966-.462-1.208a1.714 1.714 0 0 0-1.089-.363c-.537 0-.953.163-1.248.488-.295.321-.442.729-.442 1.223v4.971h-1.194v-5.23c0-.434-.141-.784-.422-1.049-.282-.268-.645-.403-1.089-.403-.305 0-.59.082-.855.244a1.833 1.833 0 0 0-.636.676c-.16.285-.239.615-.239.989v4.773h-1.173Zm15.369.159c-.736 0-1.37-.162-1.904-.487a3.28 3.28 0 0 1-1.228-1.372c-.285-.59-.427-1.276-.427-2.058 0-.783.142-1.472.427-2.069.289-.599.69-1.067 1.203-1.402.517-.338 1.121-.507 1.81-.507.398 0 .79.067 1.178.199.388.133.741.348 1.059.646.318.295.572.687.761 1.174.189.487.283 1.087.283 1.8v.497h-5.886v-1.015h4.693c0-.43-.086-.815-.259-1.153a1.948 1.948 0 0 0-.725-.8c-.312-.196-.68-.294-1.104-.294-.467 0-.872.116-1.213.348a2.298 2.298 0 0 0-.781.895 2.635 2.635 0 0 0-.273 1.183v.677c0 .576.099 1.065.298 1.466.202.398.482.701.84.91.358.205.774.308 1.248.308.308 0 .587-.043.835-.129.252-.09.469-.222.652-.398.182-.179.323-.401.422-.666l1.134.318c-.119.385-.32.723-.602 1.014a2.92 2.92 0 0 1-1.044.677c-.414.159-.88.238-1.397.238Zm10.356-6.085-1.054.298a1.97 1.97 0 0 0-.293-.512 1.425 1.425 0 0 0-.517-.417c-.219-.11-.499-.164-.84-.164-.468 0-.857.107-1.169.323-.308.212-.462.482-.462.81 0 .292.106.522.318.691.212.169.544.31.994.423l1.134.278c.683.166 1.191.419 1.526.761.335.338.502.774.502 1.307 0 .438-.126.829-.378 1.174-.248.344-.596.616-1.044.815-.447.199-.967.298-1.561.298-.779 0-1.423-.169-1.934-.507-.51-.338-.833-.832-.969-1.481l1.114-.279c.106.411.306.719.601.925.298.205.688.308 1.168.308.547 0 .982-.116 1.303-.348.325-.235.487-.517.487-.845a.89.89 0 0 0-.278-.666c-.186-.183-.471-.318-.855-.408l-1.273-.298c-.699-.166-1.213-.423-1.541-.771-.325-.351-.487-.79-.487-1.317 0-.431.121-.812.362-1.144a2.48 2.48 0 0 1 1-.78 3.508 3.508 0 0 1 1.442-.284c.755 0 1.348.166 1.779.497.435.332.743.769.925 1.313Zm7.315 0-1.054.298a2.004 2.004 0 0 0-.294-.512 1.417 1.417 0 0 0-.517-.417c-.219-.11-.499-.164-.84-.164-.467 0-.857.107-1.168.323-.309.212-.463.482-.463.81 0 .292.106.522.318.691.213.169.544.31.995.423l1.133.278c.683.166 1.192.419 1.527.761.334.338.502.774.502 1.307 0 .438-.126.829-.378 1.174-.249.344-.597.616-1.044.815-.448.199-.968.298-1.561.298-.779 0-1.424-.169-1.934-.507-.511-.338-.834-.832-.97-1.481l1.114-.279c.106.411.307.719.602.925.298.205.687.308 1.168.308.547 0 .981-.116 1.302-.348.325-.235.488-.517.488-.845a.887.887 0 0 0-.279-.666c-.185-.183-.47-.318-.855-.408l-1.273-.298c-.699-.166-1.213-.423-1.541-.771-.325-.351-.487-.79-.487-1.317 0-.431.121-.812.363-1.144a2.47 2.47 0 0 1 .999-.78 3.508 3.508 0 0 1 1.442-.284c.756 0 1.349.166 1.78.497.434.332.742.769.925 1.313Zm4.152 6.105c-.484 0-.923-.091-1.317-.273a2.263 2.263 0 0 1-.94-.801c-.232-.351-.348-.775-.348-1.272 0-.438.086-.793.258-1.064.173-.276.403-.491.692-.647.288-.156.606-.272.954-.348.351-.079.704-.142 1.059-.189.464-.059.84-.104 1.129-.134.291-.033.503-.088.636-.164.136-.076.204-.209.204-.398v-.039c0-.491-.134-.872-.403-1.144-.265-.272-.668-.408-1.208-.408-.56 0-.999.123-1.318.368-.318.246-.541.507-.671.786l-1.113-.398c.199-.464.464-.825.795-1.084a2.981 2.981 0 0 1 1.094-.547 4.546 4.546 0 0 1 1.173-.159c.245 0 .527.03.845.09.322.056.632.174.93.353.302.179.552.449.751.81.199.361.298.845.298 1.452v5.031h-1.173v-1.034h-.06a2.042 2.042 0 0 1-.398.532c-.185.189-.432.35-.74.482-.309.133-.685.199-1.129.199Zm.179-1.054c.464 0 .855-.091 1.173-.273a1.863 1.863 0 0 0 .975-1.616v-1.074c-.05.06-.159.114-.328.164a5.287 5.287 0 0 1-.577.124 25.183 25.183 0 0 1-1.124.15c-.305.039-.59.104-.855.193a1.484 1.484 0 0 0-.636.393c-.159.173-.239.408-.239.706 0 .408.151.716.453.925.305.205.691.308 1.158.308Zm8.545 3.898c-.567 0-1.054-.073-1.462-.219a3.088 3.088 0 0 1-1.019-.567 3.107 3.107 0 0 1-.641-.745l.934-.657c.107.14.241.299.403.478.163.182.385.339.666.472.285.136.658.204 1.119.204.616 0 1.125-.149 1.526-.448.401-.298.602-.765.602-1.402v-1.551h-.1a6.022 6.022 0 0 1-.368.517c-.155.202-.381.383-.676.542-.291.156-.686.234-1.183.234-.616 0-1.17-.146-1.66-.438-.488-.291-.874-.716-1.159-1.272-.282-.557-.422-1.233-.422-2.029 0-.782.137-1.463.412-2.043.275-.583.658-1.034 1.149-1.352.49-.322 1.057-.483 1.7-.483.497 0 .892.083 1.183.249.295.162.521.348.676.557.159.205.282.374.368.507h.12v-1.213h1.133v7.855c0 .656-.149 1.19-.447 1.601a2.555 2.555 0 0 1-1.194.91 4.51 4.51 0 0 1-1.66.293Zm-.04-4.196c.471 0 .869-.108 1.193-.323.325-.216.572-.526.741-.93.169-.404.254-.888.254-1.452 0-.55-.083-1.035-.249-1.456a2.19 2.19 0 0 0-.736-.99c-.325-.238-.726-.358-1.203-.358-.497 0-.911.126-1.243.378-.328.252-.575.59-.74 1.014a3.911 3.911 0 0 0-.244 1.412c0 .531.083 1 .248 1.407.17.405.418.723.746.955.332.228.743.343 1.233.343Zm8.691 1.332c-.736 0-1.371-.162-1.905-.487a3.28 3.28 0 0 1-1.228-1.372c-.285-.59-.427-1.276-.427-2.058 0-.783.142-1.472.427-2.069.289-.599.69-1.067 1.204-1.402.517-.338 1.12-.507 1.809-.507.398 0 .791.067 1.178.199.388.133.741.348 1.059.646.319.295.572.687.761 1.174.189.487.283 1.087.283 1.8v.497h-5.886v-1.015h4.693c0-.43-.086-.815-.258-1.153a1.943 1.943 0 0 0-.726-.8c-.312-.196-.68-.294-1.104-.294-.467 0-.871.116-1.213.348a2.288 2.288 0 0 0-.78.895 2.622 2.622 0 0 0-.274 1.183v.677c0 .576.1 1.065.298 1.466.203.398.483.701.841.91.358.205.774.308 1.248.308.308 0 .586-.043.835-.129.252-.09.469-.222.651-.398a1.82 1.82 0 0 0 .423-.666l1.133.318c-.119.385-.32.723-.601 1.014-.282.289-.63.514-1.044.677-.415.159-.88.238-1.397.238Zm12.205-7.795v.994h-3.958v-.994h3.958Zm-2.804-1.83h1.173v7.279c0 .331.048.58.144.745.1.163.226.272.378.328.156.054.32.08.492.08.13 0 .236-.007.318-.02l.199-.04.239 1.054c-.08.03-.191.06-.333.09-.143.033-.323.05-.542.05a2.37 2.37 0 0 1-.974-.214 1.94 1.94 0 0 1-.786-.652c-.205-.291-.308-.659-.308-1.103v-7.597Zm7.589 9.625c-.689 0-1.294-.164-1.815-.492a3.345 3.345 0 0 1-1.213-1.377c-.288-.59-.432-1.279-.432-2.068 0-.796.144-1.49.432-2.083a3.334 3.334 0 0 1 1.213-1.382c.521-.329 1.126-.493 1.815-.493.689 0 1.293.164 1.81.493.52.328.924.788 1.213 1.382.291.593.437 1.287.437 2.083 0 .789-.146 1.478-.437 2.068a3.303 3.303 0 0 1-1.213 1.377c-.517.328-1.121.492-1.81.492Zm0-1.054c.524 0 .954-.134 1.293-.402.338-.269.588-.622.75-1.059.163-.438.244-.912.244-1.422 0-.511-.081-.986-.244-1.427a2.401 2.401 0 0 0-.75-1.069c-.339-.272-.769-.408-1.293-.408-.524 0-.955.136-1.293.408a2.401 2.401 0 0 0-.75 1.069 4.081 4.081 0 0 0-.244 1.427c0 .51.081.984.244 1.422.162.437.412.79.75 1.059.338.268.769.402 1.293.402Zm12.51-6.741v.994h-3.958v-.994h3.958Zm-2.804-1.83h1.173v7.279c0 .331.048.58.144.745.1.163.226.272.378.328.156.054.32.08.492.08.129 0 .236-.007.318-.02l.199-.04.239 1.054c-.08.03-.191.06-.333.09-.143.033-.323.05-.542.05-.332 0-.656-.072-.975-.214a1.944 1.944 0 0 1-.785-.652c-.206-.291-.308-.659-.308-1.103v-7.597Zm5.906 4.872v4.594h-1.173v-10.182h1.173v3.739h.099c.179-.394.448-.708.806-.94.361-.235.842-.353 1.442-.353.52 0 .976.105 1.367.314.391.205.694.522.91.949.218.424.328.965.328 1.621v4.852h-1.174v-4.773c0-.606-.157-1.075-.472-1.407-.311-.334-.744-.502-1.298-.502-.384 0-.729.082-1.034.244-.301.162-.54.399-.716.711-.172.311-.258.689-.258 1.133Zm7.098 4.594v-7.636h1.173v7.636h-1.173Zm.597-8.909a.834.834 0 0 1-.592-.234.75.75 0 0 1-.243-.561c0-.219.081-.406.243-.562a.834.834 0 0 1 .592-.234c.228 0 .424.078.586.234a.744.744 0 0 1 .249.562.741.741 0 0 1-.249.561.815.815 0 0 1-.586.234Zm8.135 2.983-1.054.298a2.004 2.004 0 0 0-.294-.512 1.417 1.417 0 0 0-.517-.417c-.219-.11-.499-.164-.84-.164-.467 0-.857.107-1.168.323-.309.212-.463.482-.463.81 0 .292.106.522.318.691.213.169.544.31.995.423l1.133.278c.683.166 1.192.419 1.527.761.334.338.502.774.502 1.307 0 .438-.126.829-.378 1.174-.249.344-.597.616-1.044.815-.448.199-.968.298-1.561.298-.779 0-1.424-.169-1.934-.507-.511-.338-.834-.832-.97-1.481l1.114-.279c.106.411.307.719.602.925.298.205.687.308 1.168.308.547 0 .981-.116 1.302-.348.325-.235.488-.517.488-.845a.887.887 0 0 0-.279-.666c-.185-.183-.47-.318-.855-.408l-1.273-.298c-.699-.166-1.213-.423-1.541-.771-.325-.351-.487-.79-.487-1.317 0-.431.121-.812.363-1.144a2.47 2.47 0 0 1 .999-.78 3.508 3.508 0 0 1 1.442-.284c.756 0 1.349.166 1.78.497.434.332.742.769.925 1.313Zm10.655 2.804v-4.514h1.173v7.636h-1.173v-1.292h-.08a2.51 2.51 0 0 1-.835.989c-.378.268-.855.403-1.432.403-.477 0-.901-.105-1.272-.314-.372-.212-.663-.53-.875-.954-.213-.428-.319-.966-.319-1.616v-4.852h1.174v4.772c0 .557.155 1.001.467 1.333.315.331.716.497 1.203.497a2 2 0 0 0 .89-.224c.305-.149.56-.378.766-.686.208-.308.313-.701.313-1.178Zm8.731-2.804-1.054.298a1.97 1.97 0 0 0-.293-.512 1.417 1.417 0 0 0-.517-.417c-.219-.11-.499-.164-.84-.164-.468 0-.857.107-1.169.323-.308.212-.462.482-.462.81 0 .292.106.522.318.691.212.169.544.31.995.423l1.133.278c.683.166 1.192.419 1.526.761.335.338.502.774.502 1.307 0 .438-.126.829-.377 1.174-.249.344-.597.616-1.044.815-.448.199-.968.298-1.562.298-.778 0-1.423-.169-1.933-.507-.511-.338-.834-.832-.97-1.481l1.114-.279c.106.411.306.719.601.925.299.205.688.308 1.169.308.546 0 .981-.116 1.302-.348.325-.235.487-.517.487-.845a.886.886 0 0 0-.278-.666c-.186-.183-.471-.318-.855-.408l-1.273-.298c-.699-.166-1.213-.423-1.541-.771-.325-.351-.487-.79-.487-1.317 0-.431.121-.812.363-1.144a2.47 2.47 0 0 1 .999-.78 3.508 3.508 0 0 1 1.442-.284c.755 0 1.349.166 1.78.497.434.332.742.769.924 1.313Zm5.107 6.085c-.735 0-1.37-.162-1.904-.487a3.28 3.28 0 0 1-1.228-1.372c-.285-.59-.427-1.276-.427-2.058 0-.783.142-1.472.427-2.069.289-.599.69-1.067 1.203-1.402.517-.338 1.121-.507 1.81-.507.398 0 .79.067 1.178.199.388.133.741.348 1.059.646.318.295.572.687.761 1.174.189.487.283 1.087.283 1.8v.497h-5.886v-1.015h4.693c0-.43-.086-.815-.258-1.153a1.95 1.95 0 0 0-.726-.8c-.312-.196-.68-.294-1.104-.294-.467 0-.872.116-1.213.348a2.298 2.298 0 0 0-.781.895 2.635 2.635 0 0 0-.273 1.183v.677c0 .576.099 1.065.298 1.466.202.398.482.701.84.91.358.205.774.308 1.248.308.309 0 .587-.043.836-.129.251-.09.469-.222.651-.398.182-.179.323-.401.422-.666l1.134.318c-.119.385-.32.723-.602 1.014a2.92 2.92 0 0 1-1.044.677c-.414.159-.88.238-1.397.238Zm4.947-.159v-7.636h1.134v1.153h.079c.139-.378.391-.684.756-.92a2.224 2.224 0 0 1 1.233-.353c.086 0 .194.002.323.005.129.004.227.009.293.015v1.194a3.506 3.506 0 0 0-.273-.045 2.715 2.715 0 0 0-.443-.035c-.371 0-.702.078-.994.234a1.712 1.712 0 0 0-.935 1.556v4.832h-1.173Zm5.189.08a.859.859 0 0 1-.631-.264.859.859 0 0 1-.264-.631c0-.245.088-.456.264-.632a.862.862 0 0 1 .631-.263c.245 0 .456.088.632.263a.866.866 0 0 1 .263.632.841.841 0 0 1-.124.447.94.94 0 0 1-.323.328.851.851 0 0 1-.448.12Z"/>
  </g>
  <g filter="url(#e)">
    <path fill="#E6E6E6" d="M1797.55 419.921h-659.1a19.947 19.947 0 0 1-14.17-5.959c-3.76-3.811-5.87-8.977-5.88-14.365V22.914h699.2v376.683c-.01 5.388-2.12 10.554-5.88 14.365a19.947 19.947 0 0 1-14.17 5.959Z"/>
    <path fill="#fff" d="M1776.73 380.618H1170.1a10.272 10.272 0 0 1-7.3-3.07 10.57 10.57 0 0 1-3.03-7.4V71.888a10.57 10.57 0 0 1 3.03-7.4 10.274 10.274 0 0 1 7.3-3.07h606.63c2.74.003 5.37 1.107 7.31 3.07a10.561 10.561 0 0 1 3.02 7.4v298.26a10.56 10.56 0 0 1-3.02 7.4 10.295 10.295 0 0 1-7.31 3.07Z"/>
    <path fill="#6C63FF" d="M1819 36.643h-702V20.325c.01-5.389 2.12-10.555 5.88-14.365A19.946 19.946 0 0 1 1137.05 0h661.9c5.31.006 10.41 2.15 14.17 5.96s5.87 8.976 5.88 14.365v16.318Z"/>
    <path fill="#fff" d="M1140 23.813c2.87 0 5.2-2.362 5.2-5.276 0-2.914-2.33-5.276-5.2-5.276-2.88 0-5.21 2.362-5.21 5.276 0 2.914 2.33 5.276 5.21 5.276Zm19.76 0c2.87 0 5.2-2.362 5.2-5.276 0-2.914-2.33-5.276-5.2-5.276-2.88 0-5.21 2.362-5.21 5.276 0 2.914 2.33 5.276 5.21 5.276Zm19.76 0c2.87 0 5.2-2.362 5.2-5.276 0-2.914-2.33-5.276-5.2-5.276-2.88 0-5.21 2.362-5.21 5.276 0 2.914 2.33 5.276 5.21 5.276Z"/>
  </g>
  <path fill="#ABABAB" d="M1593.58 79h-314.75a5.78 5.78 0 0 0-4.12 1.735 5.975 5.975 0 0 0-1.71 4.182v273.166c0 1.568.62 3.073 1.71 4.182a5.782 5.782 0 0 0 4.12 1.735h314.75a5.8 5.8 0 0 0 4.12-1.735 5.975 5.975 0 0 0 1.71-4.182V84.917c0-1.569-.62-3.073-1.71-4.182a5.797 5.797 0 0 0-4.12-1.735Zm3.49 279.084a3.6 3.6 0 0 1-1.02 2.509 3.495 3.495 0 0 1-2.47 1.048h-314.75a3.463 3.463 0 0 1-2.47-1.046 3.604 3.604 0 0 1-1.02-2.511V84.917c0-.94.37-1.844 1.02-2.51a3.463 3.463 0 0 1 2.47-1.047h314.75c.93.005 1.81.382 2.47 1.048a3.6 3.6 0 0 1 1.02 2.51v273.166Z"/>
  <path fill="#6C63FF" d="M1351.48 315.429c0 .422-.01.843-.03 1.252-.32 6.165-2.96 11.97-7.37 16.219-4.41 4.249-10.26 6.617-16.34 6.617s-11.93-2.368-16.34-6.617c-4.42-4.249-7.05-10.054-7.37-16.219-.02-.409-.03-.83-.03-1.252 0-6.391 2.5-12.52 6.95-17.039 4.45-4.519 10.49-7.058 16.79-7.058 6.3 0 12.33 2.539 16.79 7.058 4.45 4.519 6.95 10.648 6.95 17.039Zm217.64-16.068h-186.55c-1.03.039-2 .48-2.71 1.229a4.048 4.048 0 0 0-1.1 2.788c0 1.04.39 2.04 1.1 2.789a3.94 3.94 0 0 0 2.71 1.229h186.55a3.936 3.936 0 0 0 2.84-1.072 4.042 4.042 0 0 0 1.26-2.794 4.067 4.067 0 0 0-1.05-2.883 3.93 3.93 0 0 0-3.05-1.286Z"/>
  <path fill="#E6E6E6" d="M1462.84 323.463h-80.27c-1.05 0-2.06.423-2.8 1.175a4.05 4.05 0 0 0 0 5.673 3.927 3.927 0 0 0 2.8 1.175h80.27a3.94 3.94 0 0 0 2.8-1.17 4.044 4.044 0 0 0 1.16-2.835c0-1.064-.41-2.085-1.15-2.838a3.936 3.936 0 0 0-2.8-1.18h-.01Z"/>
  <path fill="#6C63FF" d="M1668.36 269.559h-314.75a6.589 6.589 0 0 1-4.7-1.978 6.783 6.783 0 0 1-1.95-4.769V122.616c0-1.789.7-3.504 1.95-4.769a6.589 6.589 0 0 1 4.7-1.978h314.74c1.76.002 3.45.714 4.7 1.978a6.783 6.783 0 0 1 1.95 4.769v140.192c0 1.789-.7 3.504-1.95 4.77a6.586 6.586 0 0 1-4.69 1.981Z"/>
  <path fill="#fff" d="M1417.71 165.565a3.922 3.922 0 0 0-2.85 1.053 3.995 3.995 0 0 0-1.28 2.788 4.034 4.034 0 0 0 1.03 2.892 3.944 3.944 0 0 0 3.1 1.3h186.55a3.947 3.947 0 0 0 2.69-1.236c.7-.749 1.1-1.745 1.1-2.78 0-1.036-.4-2.032-1.1-2.78a3.943 3.943 0 0 0-2.69-1.237h-186.55Zm0 23.272a3.922 3.922 0 0 0-2.85 1.053 3.995 3.995 0 0 0-1.28 2.788 4.03 4.03 0 0 0 1.03 2.892 3.94 3.94 0 0 0 3.1 1.3h186.55a3.947 3.947 0 0 0 2.69-1.236c.7-.748 1.1-1.744 1.1-2.78 0-1.036-.4-2.032-1.1-2.78a3.952 3.952 0 0 0-2.69-1.237h-186.55Zm0 22.989a3.943 3.943 0 0 0-2.69 1.237 4.032 4.032 0 0 0-1.1 2.78c0 1.035.39 2.031 1.1 2.78a3.947 3.947 0 0 0 2.69 1.236h80.27a3.915 3.915 0 0 0 2.85-1.052 4.074 4.074 0 0 0 1.28-2.789 4.288 4.288 0 0 0-.23-1.55 3.946 3.946 0 0 0-.81-1.341 3.902 3.902 0 0 0-3.09-1.301h-80.27Z"/>
  <g filter="url(#f)">
    <path fill="#E6E6E6" d="M1862.31 1036h-758.62c-6.11-.01-11.98-2.66-16.31-7.38-4.32-4.72-6.76-11.12-6.77-17.79V544.374h804.78v466.456c-.01 6.67-2.45 13.07-6.77 17.79-4.33 4.72-10.2 7.37-16.31 7.38Z"/>
    <path fill="#fff" d="M1832.12 987.824h-698.24c-3.15-.004-6.17-1.372-8.4-3.802-2.23-2.431-3.48-5.727-3.49-9.164V605.515c.01-3.438 1.26-6.733 3.49-9.164 2.23-2.431 5.25-3.798 8.4-3.802h698.24c3.15.004 6.17 1.371 8.4 3.802 2.23 2.431 3.48 5.726 3.49 9.164v369.343c-.01 3.437-1.26 6.733-3.49 9.164-2.23 2.43-5.25 3.798-8.4 3.802Z"/>
    <path fill="#6C63FF" d="M1887 561.376h-808v-20.207c.01-6.673 2.44-13.071 6.77-17.789 4.32-4.718 10.19-7.372 16.31-7.38h761.84c6.12.008 11.99 2.662 16.31 7.38 4.33 4.718 6.76 11.116 6.77 17.789v20.207Z"/>
    <path fill="#E6E6E6" d="M1311.55 665.037h-124.28c-3.16.003-6.18 1.37-8.41 3.801-2.23 2.431-3.48 5.727-3.48 9.165v89.082c0 3.438 1.25 6.734 3.48 9.165 2.23 2.431 5.25 3.798 8.41 3.8h124.28c3.15-.005 6.17-1.372 8.4-3.803 2.23-2.43 3.48-5.725 3.49-9.162v-89.082c-.01-3.437-1.26-6.732-3.49-9.163-2.23-2.43-5.25-3.798-8.4-3.803Zm233.59 0h-124.28c-3.15.003-6.18 1.37-8.4 3.801-2.23 2.431-3.49 5.727-3.49 9.165v89.082c0 3.438 1.26 6.734 3.49 9.165 2.22 2.431 5.25 3.798 8.4 3.8h124.28c3.15-.005 6.17-1.372 8.4-3.803 2.23-2.43 3.49-5.725 3.49-9.162v-89.082c0-3.437-1.26-6.732-3.49-9.163-2.23-2.43-5.25-3.798-8.4-3.803Zm233.6 0h-124.28c-3.16.003-6.18 1.37-8.41 3.801-2.23 2.431-3.48 5.727-3.48 9.165v89.082c0 3.438 1.25 6.734 3.48 9.165 2.23 2.431 5.25 3.798 8.41 3.8h124.28c3.15-.005 6.17-1.372 8.4-3.803 2.23-2.43 3.48-5.725 3.49-9.162v-89.082c-.01-3.437-1.26-6.732-3.49-9.163-2.23-2.43-5.25-3.798-8.4-3.803ZM1293.96 822.15h-89.11c-1.75 0-3.44.76-4.68 2.111-1.23 1.352-1.93 3.185-1.93 5.097 0 1.911.7 3.744 1.93 5.096 1.24 1.352 2.93 2.111 4.68 2.111h89.11c1.76 0 3.44-.759 4.68-2.111 1.24-1.352 1.93-3.185 1.93-5.096 0-1.912-.69-3.745-1.93-5.097-1.24-1.351-2.92-2.111-4.68-2.111Zm0 39.385h-89.11c-1.51-.003-2.98.561-4.16 1.596-1.18 1.036-1.99 2.481-2.31 4.093a7.798 7.798 0 0 0 .56 4.768c.69 1.471 1.81 2.643 3.19 3.317.86.424 1.78.643 2.72.641h89.11c1.76 0 3.44-.759 4.68-2.111 1.24-1.351 1.93-3.185 1.93-5.096 0-1.912-.69-3.745-1.93-5.097-1.24-1.351-2.92-2.111-4.68-2.111Zm0 39.385h-89.11c-1.75 0-3.44.76-4.68 2.111-1.23 1.352-1.93 3.185-1.93 5.097 0 1.911.7 3.744 1.93 5.096 1.24 1.352 2.93 2.111 4.68 2.111h89.11c1.76 0 3.44-.759 4.68-2.111 1.24-1.352 1.93-3.185 1.93-5.096 0-1.912-.69-3.745-1.93-5.097-1.24-1.351-2.92-2.111-4.68-2.111Zm233.6-78.77h-89.12c-1.75 0-3.43.76-4.67 2.111-1.24 1.352-1.94 3.185-1.94 5.097 0 1.911.7 3.744 1.94 5.096 1.24 1.352 2.92 2.111 4.67 2.111h89.12c1.75 0 3.43-.759 4.67-2.111 1.24-1.352 1.94-3.185 1.94-5.096 0-1.912-.7-3.745-1.94-5.097-1.24-1.351-2.92-2.111-4.67-2.111Zm0 39.385h-89.12c-1.75 0-3.43.76-4.67 2.111-1.24 1.352-1.94 3.185-1.94 5.097 0 1.911.7 3.745 1.94 5.096 1.24 1.352 2.92 2.111 4.67 2.111h89.12c1.75 0 3.43-.759 4.67-2.111 1.24-1.351 1.94-3.185 1.94-5.096 0-1.912-.7-3.745-1.94-5.097-1.24-1.351-2.92-2.111-4.67-2.111Zm0 39.385h-89.12c-1.57-.002-3.09.607-4.29 1.716-1.19 1.11-1.99 2.649-2.24 4.34a7.733 7.733 0 0 0 .88 4.89c.81 1.465 2.08 2.565 3.57 3.103.67.246 1.37.37 2.08.366h89.12c1.75 0 3.43-.759 4.67-2.111 1.24-1.352 1.94-3.185 1.94-5.096 0-1.912-.7-3.745-1.94-5.097-1.24-1.351-2.92-2.111-4.67-2.111Zm233.59-78.77h-89.11c-1.75 0-3.44.76-4.68 2.111-1.23 1.352-1.93 3.185-1.93 5.097 0 1.911.7 3.744 1.93 5.096 1.24 1.352 2.93 2.111 4.68 2.111h89.11c1.76 0 3.44-.759 4.68-2.111 1.24-1.352 1.93-3.185 1.93-5.096 0-1.912-.69-3.745-1.93-5.097-1.24-1.351-2.92-2.111-4.68-2.111Zm0 39.385h-89.11c-1.51-.003-2.98.561-4.16 1.596-1.18 1.036-1.99 2.481-2.31 4.093a7.798 7.798 0 0 0 .56 4.768c.69 1.471 1.81 2.643 3.19 3.317.86.424 1.78.643 2.72.641h89.11c1.76 0 3.44-.759 4.68-2.111 1.24-1.351 1.93-3.185 1.93-5.096 0-1.912-.69-3.745-1.93-5.097-1.24-1.351-2.92-2.111-4.68-2.111Zm0 39.385h-89.11c-1.75 0-3.44.76-4.68 2.111-1.23 1.352-1.93 3.185-1.93 5.097 0 1.911.7 3.744 1.93 5.096 1.24 1.352 2.93 2.111 4.68 2.111h89.11c1.76 0 3.44-.759 4.68-2.111 1.24-1.352 1.93-3.185 1.93-5.096 0-1.912-.69-3.745-1.93-5.097-1.24-1.351-2.92-2.111-4.68-2.111Z"/>
    <path fill="#fff" d="M1105.47 545.489c3.31 0 5.99-2.926 5.99-6.534 0-3.609-2.68-6.534-5.99-6.534s-5.99 2.925-5.99 6.534c0 3.608 2.68 6.534 5.99 6.534Zm22.74 0c3.31 0 6-2.926 6-6.534 0-3.609-2.69-6.534-6-6.534-3.3 0-5.99 2.925-5.99 6.534 0 3.608 2.69 6.534 5.99 6.534Zm22.75 0c3.31 0 5.99-2.926 5.99-6.534 0-3.609-2.68-6.534-5.99-6.534s-5.99 2.925-5.99 6.534c0 3.608 2.68 6.534 5.99 6.534Z"/>
    <path fill="#6C63FF" d="M1268.6 822.15h-63.75c-1.75 0-3.44.76-4.68 2.111-1.23 1.352-1.93 3.185-1.93 5.097 0 1.911.7 3.744 1.93 5.096 1.24 1.352 2.93 2.111 4.68 2.111h62.43a7.61 7.61 0 0 0 3.17-2.686 8.65 8.65 0 0 0 1.46-4.086 8.847 8.847 0 0 0-.68-4.321 8.01 8.01 0 0 0-2.63-3.322Zm-29.44 39.385h-34.31c-1.51-.003-2.98.561-4.16 1.596-1.18 1.036-1.99 2.481-2.31 4.093a7.798 7.798 0 0 0 .56 4.768c.69 1.471 1.81 2.643 3.19 3.317h31.52c1.99 0 3.91-.865 5.32-2.404 1.41-1.539 2.2-3.626 2.2-5.802.01-2.069-.71-4.064-2.01-5.568Zm454.82-39.385h-21.94c-1.47-.001-2.89.527-4.05 1.502-1.16.975-1.98 2.341-2.35 3.886a7.841 7.841 0 0 0 .31 4.646c.57 1.469 1.58 2.687 2.86 3.466h19.44c2-.001 3.91-.866 5.32-2.405 1.41-1.538 2.2-3.625 2.21-5.802 0-1.941-.63-3.82-1.8-5.293Zm16.57 39.385h-38.51c-1.51-.003-2.98.561-4.16 1.596-1.18 1.036-1.99 2.481-2.31 4.093a7.798 7.798 0 0 0 .56 4.768c.69 1.471 1.81 2.643 3.19 3.317h35.72c1.99 0 3.9-.865 5.32-2.404 1.41-1.539 2.2-3.626 2.2-5.802.01-2.069-.71-4.064-2.01-5.568Zm-189.19 0h-82.92c-1.75 0-3.43.76-4.67 2.111-1.24 1.352-1.94 3.185-1.94 5.097 0 1.911.7 3.745 1.94 5.096 1.24 1.352 2.92 2.111 4.67 2.111h82.54c1.22-.663 2.24-1.672 2.97-2.92a8.716 8.716 0 0 0 1.17-4.164 8.793 8.793 0 0 0-.95-4.231 7.853 7.853 0 0 0-2.81-3.1Zm-74.02 39.385h-8.9c-1.57-.002-3.09.607-4.29 1.716-1.19 1.11-1.99 2.649-2.24 4.34a7.733 7.733 0 0 0 .88 4.89c.81 1.465 2.08 2.565 3.57 3.103h5.71c1.99-.001 3.91-.866 5.32-2.404 1.41-1.539 2.2-3.626 2.2-5.802 0-1.089-.19-2.168-.58-3.171a8.154 8.154 0 0 0-1.67-2.672Zm39.47-78.77h-48.37c-1.75 0-3.43.76-4.67 2.111-1.24 1.352-1.94 3.185-1.94 5.097 0 1.911.7 3.744 1.94 5.096 1.24 1.352 2.92 2.111 4.67 2.111h47.04a7.575 7.575 0 0 0 3.18-2.686 8.65 8.65 0 0 0 1.46-4.086 8.965 8.965 0 0 0-.68-4.321c-.59-1.346-1.49-2.494-2.63-3.322Z"/>
    <path fill="#fff" d="M1381.94 848.136c-1.17.063-2.28.68-3.09 1.722-.81 1.043-1.27 2.43-1.27 3.873 0 1.442.46 2.829 1.27 3.872.81 1.042 1.92 1.659 3.09 1.722h92.36a3.81 3.81 0 0 0 1.76-.333 4.503 4.503 0 0 0 1.52-1.133 5.66 5.66 0 0 0 1.05-1.762c.25-.666.39-1.388.42-2.122a6.53 6.53 0 0 0-.27-2.16c-.2-.69-.52-1.325-.92-1.867a4.748 4.748 0 0 0-1.44-1.292 3.888 3.888 0 0 0-1.72-.52 3.81 3.81 0 0 0-.4 0h-92.36Zm0-32.019c-1.21-.065-2.39.463-3.28 1.466-.89 1.003-1.42 2.4-1.47 3.884-.05 1.484.38 2.932 1.19 4.027.82 1.095 1.96 1.747 3.16 1.811.14.007.27.007.4 0h214.64c1.17-.063 2.28-.68 3.09-1.722.81-1.042 1.26-2.429 1.26-3.872s-.45-2.83-1.26-3.872c-.81-1.042-1.92-1.659-3.09-1.722h-214.64Zm0-32.414c-1.21-.065-2.39.463-3.28 1.466-.89 1.003-1.42 2.4-1.47 3.884-.05 1.484.38 2.932 1.19 4.027.82 1.095 1.96 1.747 3.16 1.811.14.007.27.007.4 0h214.64c1.17-.063 2.28-.68 3.09-1.722.81-1.042 1.26-2.429 1.26-3.872 0-1.442-.45-2.83-1.26-3.872-.81-1.042-1.92-1.659-3.09-1.722h-214.64Z"/>
    <path fill="#6C63FF" d="M1670.06 928.715h-374.94c-2.09-.004-4.11-1.293-5.59-3.585-1.49-2.292-2.32-5.4-2.32-8.641V662.443c0-3.242.83-6.349 2.32-8.642 1.48-2.292 3.5-3.581 5.59-3.585h374.94c2.1.004 4.11 1.293 5.59 3.585 1.49 2.293 2.32 5.4 2.33 8.642v254.039c-.01 3.241-.84 6.35-2.32 8.643-1.49 2.293-3.5 3.585-5.6 3.59Z"/>
    <path fill="#fff" d="m1351.8 732.216-6.66-23.272h5.37l3.85 16.17h.2l4.25-16.17h4.6l4.24 16.204h.2l3.85-16.204h5.38l-6.66 23.272h-4.8L1361.19 717h-.18l-4.42 15.216h-4.79Zm33.9.341c-1.79 0-3.34-.363-4.63-1.091a7.421 7.421 0 0 1-2.98-3.113c-.7-1.349-1.05-2.944-1.05-4.784 0-1.796.35-3.372 1.05-4.728a7.704 7.704 0 0 1 2.94-3.17c1.27-.758 2.77-1.137 4.48-1.137 1.15 0 2.22.186 3.21.557 1 .364 1.88.913 2.62 1.648.75.735 1.33 1.659 1.75 2.773.41 1.106.62 2.401.62 3.886v1.33h-14.74v-3h10.19c0-.697-.16-1.315-.46-1.853-.3-.537-.72-.958-1.26-1.261-.53-.311-1.15-.466-1.85-.466-.74 0-1.39.171-1.96.511-.56.334-1 .785-1.31 1.353-.32.56-.49 1.185-.49 1.875v2.852c0 .864.16 1.61.47 2.239a3.54 3.54 0 0 0 1.38 1.454c.59.341 1.29.512 2.1.512.54 0 1.03-.076 1.48-.228.45-.151.83-.378 1.15-.682.31-.303.56-.674.72-1.113l4.48.295c-.23 1.076-.69 2.015-1.4 2.818-.69.796-1.6 1.417-2.7 1.864-1.1.44-2.37.659-3.81.659Zm16.01-23.613v23.272h-4.84v-23.272h4.84Zm11.77 23.613c-1.79 0-3.33-.379-4.62-1.136-1.28-.765-2.26-1.826-2.95-3.182-.68-1.356-1.02-2.917-1.02-4.682 0-1.788.34-3.356 1.03-4.704.7-1.356 1.69-2.413 2.97-3.171 1.28-.765 2.8-1.148 4.56-1.148 1.53 0 2.86.277 4 .83 1.15.553 2.05 1.33 2.72 2.33.67 1 1.03 2.174 1.1 3.522h-4.57c-.12-.871-.47-1.572-1.02-2.102-.54-.538-1.26-.807-2.15-.807-.75 0-1.4.205-1.96.614-.56.401-.99.988-1.3 1.761-.31.773-.46 1.709-.46 2.807 0 1.114.15 2.061.45 2.841.31.78.75 1.375 1.31 1.784.56.409 1.21.614 1.96.614.56 0 1.05-.114 1.49-.341.45-.228.82-.557 1.1-.989.3-.439.49-.966.58-1.579h4.57c-.07 1.333-.44 2.507-1.09 3.522-.64 1.008-1.53 1.796-2.67 2.364-1.14.568-2.48.852-4.03.852Zm18.78 0c-1.77 0-3.29-.375-4.58-1.125-1.28-.757-2.27-1.81-2.97-3.159-.69-1.356-1.04-2.928-1.04-4.716 0-1.803.35-3.379 1.04-4.727.7-1.356 1.69-2.409 2.97-3.159 1.29-.758 2.81-1.137 4.58-1.137 1.76 0 3.29.379 4.57 1.137a7.575 7.575 0 0 1 2.97 3.159c.7 1.348 1.05 2.924 1.05 4.727 0 1.788-.35 3.36-1.05 4.716a7.658 7.658 0 0 1-2.97 3.159c-1.28.75-2.81 1.125-4.57 1.125Zm.02-3.75c.8 0 1.47-.227 2.01-.682.54-.462.95-1.091 1.22-1.886.28-.795.42-1.701.42-2.716 0-1.015-.14-1.92-.42-2.716-.27-.795-.68-1.424-1.22-1.886-.54-.462-1.21-.693-2.01-.693-.81 0-1.49.231-2.04.693-.55.462-.96 1.091-1.24 1.886-.28.796-.41 1.701-.41 2.716 0 1.015.13 1.921.41 2.716.28.795.69 1.424 1.24 1.886.55.455 1.23.682 2.04.682Zm11.72 3.409v-17.454h4.61v3.079h.21c.36-1.022.96-1.829 1.81-2.42.85-.591 1.87-.887 3.05-.887 1.2 0 2.21.3 3.06.898.84.591 1.4 1.394 1.68 2.409h.18c.36-1 1-1.799 1.93-2.397.94-.606 2.05-.91 3.33-.91 1.63 0 2.95.519 3.97 1.557 1.02 1.031 1.53 2.493 1.53 4.387v11.738h-4.83v-10.784c0-.969-.26-1.697-.77-2.182-.52-.484-1.16-.727-1.93-.727-.88 0-1.57.28-2.06.841-.49.553-.74 1.284-.74 2.193v10.659h-4.69V721.33c0-.856-.25-1.538-.74-2.046-.49-.507-1.13-.761-1.92-.761-.54 0-1.02.136-1.46.409-.42.265-.76.64-1.01 1.125-.25.477-.37 1.038-.37 1.682v10.477H1444Zm37.14.341c-1.8 0-3.34-.363-4.64-1.091a7.398 7.398 0 0 1-2.97-3.113c-.7-1.349-1.05-2.944-1.05-4.784 0-1.796.35-3.372 1.05-4.728.69-1.356 1.67-2.413 2.94-3.17 1.27-.758 2.76-1.137 4.48-1.137 1.15 0 2.22.186 3.21.557 1 .364 1.87.913 2.62 1.648.75.735 1.33 1.659 1.75 2.773.41 1.106.62 2.401.62 3.886v1.33h-14.74v-3h10.18c0-.697-.15-1.315-.45-1.853-.3-.537-.72-.958-1.26-1.261-.53-.311-1.15-.466-1.85-.466-.74 0-1.39.171-1.96.511-.56.334-1 .785-1.32 1.353-.32.56-.48 1.185-.49 1.875v2.852c0 .864.16 1.61.48 2.239a3.54 3.54 0 0 0 1.38 1.454c.59.341 1.29.512 2.1.512.54 0 1.03-.076 1.48-.228.44-.151.83-.378 1.14-.682.32-.303.56-.674.73-1.113l4.48.295a6.186 6.186 0 0 1-1.4 2.818c-.7.796-1.6 1.417-2.7 1.864-1.1.44-2.37.659-3.81.659Zm27.86-17.795v3.636h-10.51v-3.636H1509Zm-8.13-4.182h4.85v16.273c0 .447.06.795.2 1.045.14.243.33.413.57.511.25.099.54.148.86.148.23 0 .46-.019.68-.057l.53-.102.76 3.602c-.24.076-.59.163-1.02.262-.44.106-.98.17-1.61.193-1.16.045-2.19-.11-3.07-.466a4.301 4.301 0 0 1-2.03-1.659c-.48-.75-.72-1.697-.72-2.841V710.58Zm18.98 21.977c-1.76 0-3.29-.375-4.58-1.125a7.635 7.635 0 0 1-2.96-3.159c-.7-1.356-1.05-2.928-1.05-4.716 0-1.803.35-3.379 1.05-4.727a7.552 7.552 0 0 1 2.96-3.159c1.29-.758 2.82-1.137 4.58-1.137 1.77 0 3.29.379 4.57 1.137 1.29.75 2.28 1.803 2.98 3.159.69 1.348 1.04 2.924 1.04 4.727 0 1.788-.35 3.36-1.04 4.716-.7 1.349-1.69 2.402-2.98 3.159-1.28.75-2.8 1.125-4.57 1.125Zm.02-3.75c.81 0 1.48-.227 2.02-.682.53-.462.94-1.091 1.21-1.886.28-.795.42-1.701.42-2.716 0-1.015-.14-1.92-.42-2.716-.27-.795-.68-1.424-1.21-1.886-.54-.462-1.21-.693-2.02-.693s-1.49.231-2.04.693c-.55.462-.96 1.091-1.24 1.886-.27.796-.41 1.701-.41 2.716 0 1.015.14 1.921.41 2.716.28.795.69 1.424 1.24 1.886.55.455 1.23.682 2.04.682Zm23.23 3.409h-5.27l8.03-23.272h6.34l8.02 23.272h-5.27l-5.83-17.954h-.18l-5.84 17.954Zm-.33-9.147h12.45v3.84h-12.45v-3.84Zm20.16 15.693v-24h4.78v2.932h.21c.22-.47.52-.947.92-1.432.41-.493.94-.902 1.59-1.228.66-.333 1.48-.5 2.46-.5 1.27 0 2.45.334 3.52 1 1.08.66 1.94 1.656 2.58 2.989.65 1.326.97 2.989.97 4.989 0 1.947-.32 3.591-.95 4.932-.62 1.333-1.47 2.344-2.54 3.034-1.07.681-2.27 1.022-3.59 1.022-.94 0-1.74-.155-2.4-.466-.65-.31-1.19-.7-1.6-1.17a5.878 5.878 0 0 1-.96-1.443h-.14v9.341h-4.85Zm4.74-15.273c0 1.038.15 1.943.43 2.716.29.773.71 1.375 1.25 1.807.55.424 1.21.636 1.99.636.79 0 1.46-.216 2-.648.55-.439.96-1.045 1.24-1.818.29-.78.43-1.678.43-2.693 0-1.008-.14-1.894-.42-2.659-.28-.765-.69-1.364-1.24-1.796-.54-.431-1.21-.647-2.01-.647-.78 0-1.45.208-2 .625-.53.416-.95 1.007-1.24 1.772-.28.766-.43 1.667-.43 2.705Zm15.51 15.273v-24h4.78v2.932h.21c.22-.47.52-.947.92-1.432.41-.493.94-.902 1.59-1.228.66-.333 1.48-.5 2.46-.5 1.27 0 2.45.334 3.52 1 1.08.66 1.94 1.656 2.58 2.989.65 1.326.97 2.989.97 4.989 0 1.947-.32 3.591-.95 4.932-.62 1.333-1.47 2.344-2.54 3.034-1.07.681-2.27 1.022-3.59 1.022-.94 0-1.74-.155-2.4-.466-.65-.31-1.19-.7-1.6-1.17a5.878 5.878 0 0 1-.96-1.443h-.14v9.341h-4.85Zm4.74-15.273c0 1.038.15 1.943.43 2.716.29.773.71 1.375 1.25 1.807.55.424 1.21.636 1.99.636.79 0 1.46-.216 2-.648.55-.439.96-1.045 1.24-1.818.29-.78.43-1.678.43-2.693 0-1.008-.14-1.894-.42-2.659-.28-.765-.69-1.364-1.24-1.796-.54-.431-1.21-.647-2.01-.647-.78 0-1.45.208-2 .625-.53.416-.95 1.007-1.24 1.772-.28.766-.43 1.667-.43 2.705Zm21.3-14.545-.44 16.295h-4.16l-.46-16.295h5.06Zm-2.52 23.568c-.75 0-1.4-.265-1.94-.796-.53-.538-.8-1.182-.79-1.932-.01-.742.26-1.378.79-1.909.54-.53 1.19-.795 1.94-.795.72 0 1.35.265 1.89.795.55.531.83 1.167.83 1.909 0 .5-.14.959-.39 1.375-.25.41-.58.739-.99.989a2.59 2.59 0 0 1-1.34.364Zm-237.86 46.709a4.437 4.437 0 0 0-3.19 1.163 4.434 4.434 0 0 0-1.44 3.082 4.47 4.47 0 0 0 1.16 3.195 4.466 4.466 0 0 0 3.47 1.438h209.27c1.14-.05 2.23-.54 3.02-1.367a4.448 4.448 0 0 0 0-6.145 4.457 4.457 0 0 0-3.02-1.366h-209.27Zm0 25.886a4.445 4.445 0 0 0-3.47 7.441 4.466 4.466 0 0 0 3.47 1.438h209.27c1.14-.05 2.23-.54 3.02-1.367a4.448 4.448 0 0 0 0-6.145 4.458 4.458 0 0 0-3.02-1.367h-209.27Zm-.38 25.887a4.437 4.437 0 0 0-4.25 4.439 4.437 4.437 0 0 0 4.25 4.439h90.04a4.427 4.427 0 0 0 4.22-2.561c.25-.529.39-1.101.42-1.684a4.55 4.55 0 0 0-.27-1.714 4.472 4.472 0 0 0-2.29-2.507 4.476 4.476 0 0 0-2.08-.412h-90.04Zm282.76-146.612-9.93-12.198 2.25-2.767 9.93 12.198-2.25 2.767Zm-7.68 0-2.25-2.767 9.93-12.198 2.25 2.767-9.93 12.198Z"/>
  </g>
  <defs>
    <filter id="a" width="1015" height="568" x="8" y="277" color-interpolation-filters="sRGB" filterUnits="userSpaceOnUse">
      <feFlood flood-opacity="0" result="BackgroundImageFix"/>
      <feColorMatrix in="SourceAlpha" result="hardAlpha" values="0 0 0 0 0 0 0 0 0 0 0 0 0 0 0 0 0 0 127 0"/>
      <feMorphology in="SourceAlpha" radius="5" result="effect1_dropShadow_1311_9914"/>
      <feOffset dy="10"/>
      <feGaussianBlur stdDeviation="5"/>
      <feColorMatrix values="0 0 0 0 0 0 0 0 0 0 0 0 0 0 0 0 0 0 0.04 0"/>
      <feBlend in2="BackgroundImageFix" result="effect1_dropShadow_1311_9914"/>
      <feColorMatrix in="SourceAlpha" result="hardAlpha" values="0 0 0 0 0 0 0 0 0 0 0 0 0 0 0 0 0 0 127 0"/>
      <feMorphology in="SourceAlpha" radius="5" result="effect2_dropShadow_1311_9914"/>
      <feOffset dy="20"/>
      <feGaussianBlur stdDeviation="12.5"/>
      <feColorMatrix values="0 0 0 0 0 0 0 0 0 0 0 0 0 0 0 0 0 0 0.1 0"/>
      <feBlend in2="effect1_dropShadow_1311_9914" result="effect2_dropShadow_1311_9914"/>
      <feBlend in="SourceGraphic" in2="effect2_dropShadow_1311_9914" result="shape"/>
    </filter>
    <filter id="b" width="394.159" height="215.308" x="367.188" y="596.611" color-interpolation-filters="sRGB" filterUnits="userSpaceOnUse">
      <feFlood flood-opacity="0" result="BackgroundImageFix"/>
      <feColorMatrix in="SourceAlpha" result="hardAlpha" values="0 0 0 0 0 0 0 0 0 0 0 0 0 0 0 0 0 0 127 0"/>
      <feMorphology in="SourceAlpha" radius="12" result="effect1_dropShadow_1311_9914"/>
      <feOffset dy="25"/>
      <feGaussianBlur stdDeviation="25"/>
      <feColorMatrix values="0 0 0 0 0 0 0 0 0 0 0 0 0 0 0 0 0 0 0.25 0"/>
      <feBlend in2="BackgroundImageFix" result="effect1_dropShadow_1311_9914"/>
      <feBlend in="SourceGraphic" in2="effect1_dropShadow_1311_9914" result="shape"/>
    </filter>
    <filter id="c" width="125.522" height="129.453" x="342.176" y="639.807" color-interpolation-filters="sRGB" filterUnits="userSpaceOnUse">
      <feFlood flood-opacity="0" result="BackgroundImageFix"/>
      <feColorMatrix in="SourceAlpha" result="hardAlpha" values="0 0 0 0 0 0 0 0 0 0 0 0 0 0 0 0 0 0 127 0"/>
      <feMorphology in="SourceAlpha" radius="12" result="effect1_dropShadow_1311_9914"/>
      <feOffset dy="25"/>
      <feGaussianBlur stdDeviation="25"/>
      <feColorMatrix values="0 0 0 0 0 0 0 0 0 0 0 0 0 0 0 0 0 0 0.25 0"/>
      <feBlend in2="BackgroundImageFix" result="effect1_dropShadow_1311_9914"/>
      <feBlend in="SourceGraphic" in2="effect1_dropShadow_1311_9914" result="shape"/>
    </filter>
    <filter id="d" width="100.012" height="128.915" x="367.188" y="639.807" color-interpolation-filters="sRGB" filterUnits="userSpaceOnUse">
      <feFlood flood-opacity="0" result="BackgroundImageFix"/>
      <feColorMatrix in="SourceAlpha" result="hardAlpha" values="0 0 0 0 0 0 0 0 0 0 0 0 0 0 0 0 0 0 127 0"/>
      <feMorphology in="SourceAlpha" radius="12" result="effect1_dropShadow_1311_9914"/>
      <feOffset dy="25"/>
      <feGaussianBlur stdDeviation="25"/>
      <feColorMatrix values="0 0 0 0 0 0 0 0 0 0 0 0 0 0 0 0 0 0 0.25 0"/>
      <feBlend in2="BackgroundImageFix" result="effect1_dropShadow_1311_9914"/>
      <feBlend in="SourceGraphic" in2="effect1_dropShadow_1311_9914" result="shape"/>
    </filter>
    <filter id="e" width="742" height="459.921" x="1097" y="0" color-interpolation-filters="sRGB" filterUnits="userSpaceOnUse">
      <feFlood flood-opacity="0" result="BackgroundImageFix"/>
      <feColorMatrix in="SourceAlpha" result="hardAlpha" values="0 0 0 0 0 0 0 0 0 0 0 0 0 0 0 0 0 0 127 0"/>
      <feMorphology in="SourceAlpha" radius="5" result="effect1_dropShadow_1311_9914"/>
      <feOffset dy="10"/>
      <feGaussianBlur stdDeviation="5"/>
      <feColorMatrix values="0 0 0 0 0 0 0 0 0 0 0 0 0 0 0 0 0 0 0.04 0"/>
      <feBlend in2="BackgroundImageFix" result="effect1_dropShadow_1311_9914"/>
      <feColorMatrix in="SourceAlpha" result="hardAlpha" values="0 0 0 0 0 0 0 0 0 0 0 0 0 0 0 0 0 0 127 0"/>
      <feMorphology in="SourceAlpha" radius="5" result="effect2_dropShadow_1311_9914"/>
      <feOffset dy="20"/>
      <feGaussianBlur stdDeviation="12.5"/>
      <feColorMatrix values="0 0 0 0 0 0 0 0 0 0 0 0 0 0 0 0 0 0 0.1 0"/>
      <feBlend in2="effect1_dropShadow_1311_9914" result="effect2_dropShadow_1311_9914"/>
      <feBlend in="SourceGraphic" in2="effect2_dropShadow_1311_9914" result="shape"/>
    </filter>
    <filter id="f" width="848" height="560" x="1059" y="516" color-interpolation-filters="sRGB" filterUnits="userSpaceOnUse">
      <feFlood flood-opacity="0" result="BackgroundImageFix"/>
      <feColorMatrix in="SourceAlpha" result="hardAlpha" values="0 0 0 0 0 0 0 0 0 0 0 0 0 0 0 0 0 0 127 0"/>
      <feMorphology in="SourceAlpha" radius="5" result="effect1_dropShadow_1311_9914"/>
      <feOffset dy="10"/>
      <feGaussianBlur stdDeviation="5"/>
      <feColorMatrix values="0 0 0 0 0 0 0 0 0 0 0 0 0 0 0 0 0 0 0.04 0"/>
      <feBlend in2="BackgroundImageFix" result="effect1_dropShadow_1311_9914"/>
      <feColorMatrix in="SourceAlpha" result="hardAlpha" values="0 0 0 0 0 0 0 0 0 0 0 0 0 0 0 0 0 0 127 0"/>
      <feMorphology in="SourceAlpha" radius="5" result="effect2_dropShadow_1311_9914"/>
      <feOffset dy="20"/>
      <feGaussianBlur stdDeviation="12.5"/>
      <feColorMatrix values="0 0 0 0 0 0 0 0 0 0 0 0 0 0 0 0 0 0 0.1 0"/>
      <feBlend in2="effect1_dropShadow_1311_9914" result="effect2_dropShadow_1311_9914"/>
      <feBlend in="SourceGraphic" in2="effect2_dropShadow_1311_9914" result="shape"/>
    </filter>
  </defs>
</svg>
