<svg width="37" height="45" viewBox="0 0 37 45" fill="none" xmlns="http://www.w3.org/2000/svg">
<path d="M33.1504 35.6055H8.41797C6.46094 35.6055 4.97266 35.5703 3.95312 35.5L4.02344 31.2285L4.16406 25.4805C4.1875 25.1523 4.28711 22.8848 4.46289 18.6777C4.65039 14.459 4.79102 11.6582 4.88477 10.2754C6.6543 10.0762 8.8457 9.97656 11.459 9.97656C14.084 9.97656 16.252 9.98828 17.9629 10.0117L17.5586 18.8008C17.5352 19.9609 17.3887 23.418 17.1191 29.1719L30.6719 28.8555C32.0312 28.8555 33.1387 28.9199 33.9941 29.0488C33.9941 29.7988 33.9004 30.7773 33.7129 31.9844L33.1504 35.6055Z" fill="#11999E"/>
</svg>
