<svg width="271" height="124" viewBox="0 0 271 124" fill="none" xmlns="http://www.w3.org/2000/svg">
<rect width="271" height="124" fill="#11999E"/>
<rect width="104" height="54" transform="translate(83 35)" fill="#11999E"/>
<rect x="86" y="35" width="37" height="54" rx="2" fill="#11999E"/>
<path d="M119.15 75.1055H94.418C92.4609 75.1055 90.9727 75.0703 89.9531 75L90.0234 70.7285L90.1641 64.9805C90.1875 64.6523 90.2871 62.3848 90.4629 58.1777C90.6504 53.959 90.791 51.1582 90.8848 49.7754C92.6543 49.5762 94.8457 49.4766 97.459 49.4766C100.084 49.4766 102.252 49.4883 103.963 49.5117L103.559 58.3008C103.535 59.4609 103.389 62.918 103.119 68.6719L116.672 68.3555C118.031 68.3555 119.139 68.4199 119.994 68.5488C119.994 69.2988 119.9 70.2773 119.713 71.4844L119.15 75.1055Z" fill="white"/>
<path d="M129.449 71H125.875V52.7656H129.449V71ZM144.754 57.8984V71H142.012L141.532 69.3242H141.344C141.063 69.7695 140.711 70.1328 140.29 70.4141C139.868 70.6953 139.403 70.9023 138.895 71.0352C138.387 71.168 137.86 71.2344 137.313 71.2344C136.375 71.2344 135.559 71.0703 134.864 70.7422C134.168 70.4062 133.625 69.8867 133.235 69.1836C132.852 68.4805 132.661 67.5664 132.661 66.4414V57.8984H136.235V65.5508C136.235 66.4883 136.403 67.1953 136.739 67.6719C137.075 68.1484 137.61 68.3867 138.344 68.3867C139.071 68.3867 139.641 68.2227 140.055 67.8945C140.469 67.5586 140.758 67.0703 140.922 66.4297C141.094 65.7812 141.18 64.9922 141.18 64.0625V57.8984H144.754ZM157.165 67.1094C157.165 68 156.954 68.7539 156.532 69.3711C156.118 69.9805 155.497 70.4453 154.669 70.7656C153.841 71.0781 152.81 71.2344 151.575 71.2344C150.661 71.2344 149.876 71.1758 149.22 71.0586C148.571 70.9414 147.915 70.7461 147.251 70.4727V67.5195C147.962 67.8398 148.724 68.1055 149.536 68.3164C150.356 68.5195 151.075 68.6211 151.692 68.6211C152.388 68.6211 152.884 68.5195 153.181 68.3164C153.485 68.1055 153.638 67.832 153.638 67.4961C153.638 67.2773 153.575 67.082 153.45 66.9102C153.333 66.7305 153.075 66.5312 152.677 66.3125C152.278 66.0859 151.653 65.793 150.802 65.4336C149.981 65.0898 149.306 64.7422 148.774 64.3906C148.251 64.0391 147.86 63.625 147.603 63.1484C147.353 62.6641 147.228 62.0508 147.228 61.3086C147.228 60.0977 147.696 59.1875 148.634 58.5781C149.579 57.9609 150.841 57.6523 152.419 57.6523C153.231 57.6523 154.005 57.7344 154.739 57.8984C155.481 58.0625 156.243 58.3242 157.024 58.6836L155.946 61.2617C155.298 60.9805 154.685 60.75 154.106 60.5703C153.536 60.3906 152.954 60.3008 152.36 60.3008C151.837 60.3008 151.442 60.3711 151.177 60.5117C150.911 60.6523 150.778 60.8672 150.778 61.1562C150.778 61.3672 150.845 61.5547 150.978 61.7188C151.118 61.8828 151.384 62.0664 151.774 62.2695C152.173 62.4648 152.755 62.7188 153.52 63.0312C154.263 63.3359 154.907 63.6562 155.454 63.9922C156.001 64.3203 156.423 64.7305 156.72 65.2227C157.017 65.707 157.165 66.3359 157.165 67.1094ZM163.048 57.8984V71H159.474V57.8984H163.048ZM161.267 52.7656C161.798 52.7656 162.255 52.8906 162.638 53.1406C163.021 53.3828 163.212 53.8398 163.212 54.5117C163.212 55.1758 163.021 55.6367 162.638 55.8945C162.255 56.1445 161.798 56.2695 161.267 56.2695C160.728 56.2695 160.267 56.1445 159.884 55.8945C159.509 55.6367 159.322 55.1758 159.322 54.5117C159.322 53.8398 159.509 53.3828 159.884 53.1406C160.267 52.8906 160.728 52.7656 161.267 52.7656ZM173.572 60.582H170.478V71H166.904V60.582H164.935V58.8594L166.904 57.8984V56.9375C166.904 55.8203 167.092 54.9531 167.467 54.3359C167.85 53.7109 168.385 53.2734 169.072 53.0234C169.768 52.7656 170.588 52.6367 171.533 52.6367C172.228 52.6367 172.861 52.6953 173.432 52.8125C174.002 52.9219 174.467 53.0469 174.826 53.1875L173.912 55.8125C173.639 55.7266 173.342 55.6484 173.021 55.5781C172.701 55.5078 172.334 55.4727 171.92 55.4727C171.42 55.4727 171.053 55.625 170.818 55.9297C170.592 56.2266 170.478 56.6094 170.478 57.0781V57.8984H173.572V60.582ZM180.674 68.3867C181.065 68.3867 181.444 68.3477 181.811 68.2695C182.186 68.1914 182.557 68.0938 182.924 67.9766V70.6367C182.541 70.8086 182.065 70.9492 181.495 71.0586C180.932 71.1758 180.315 71.2344 179.643 71.2344C178.862 71.2344 178.159 71.1094 177.534 70.8594C176.916 70.6016 176.428 70.1602 176.069 69.5352C175.717 68.9023 175.541 68.0234 175.541 66.8984V60.582H173.83V59.0703L175.799 57.875L176.83 55.1094H179.116V57.8984H182.784V60.582H179.116V66.8984C179.116 67.3984 179.256 67.7734 179.537 68.0234C179.827 68.2656 180.205 68.3867 180.674 68.3867Z" fill="white"/>
</svg>
